<?xml version="1.0" encoding="utf-8"?>
<!-- Generator: Adobe Illustrator 19.0.0, SVG Export Plug-In . SVG Version: 6.00 Build 0)  -->
<svg version="1.1" id="Layer_1" xmlns="http://www.w3.org/2000/svg" xmlns:xlink="http://www.w3.org/1999/xlink" x="0px" y="0px"
	 viewBox="0 0 512 512" style="enable-background:new 0 0 512 512;" xml:space="preserve">
<style type="text/css">
	.st0{clip-path:url(#SVGID_2_);fill:#878787;}
</style>
<g>
	<defs>
		<rect id="SVGID_1_" width="512" height="512"/>
	</defs>
	<clipPath id="SVGID_2_">
		<use xlink:href="#SVGID_1_"  style="overflow:visible;"/>
	</clipPath>
	<path class="st0" d="M499.8,315.4l-29.7-21.8c9.7-1.9,19.2-4,28.5-6.5c0.2-0.1,0.4-0.1,0.6-0.2c4.4-1.3,8.1-4.3,10.4-8.3
		c5-8.6,2-19.8-6.6-24.8c-13.1-7.6-25-17-35.9-26.9c4.3-0.8,8.5-1.8,12.8-3c0.3-0.1,0.7-0.2,1-0.3c4.3-1.4,7.8-4.3,10-8.2
		c2.4-4.2,3-9.1,1.8-13.7c-1.3-4.7-4.3-8.6-8.4-11c-13.7-7.9-25.9-17.3-36-27.5c8.6-1.7,17.9-4.6,26.9-9.8c0.2-0.1,0.4-0.3,0.6-0.4
		c3.1-2,5.5-4.8,7-8.3c1.9-4.5,1.9-9.4,0.1-13.9c-1.8-4.5-5.3-8-9.7-9.9c-31.6-13.3-47.8-38.4-57.4-53.3
		c-6.4-9.9-13.2-18.8-26.1-18.8c-12.9,0-19.8,8.9-26.1,18.8c-5.7,8.8-13.9,21.6-26.3,33.1L207.6,5.8c-10.6-7.8-25.4-7.7-35.9,0.3
		L124.2,41c-4.4,3.3-5.4,9.5-2.1,14c3.3,4.4,9.5,5.4,14,2.1l47.6-35c0.1,0,0.1-0.1,0.2-0.1c3.5-2.7,8.4-2.7,11.9-0.1l159.9,117.7
		c4.4,3.2,5.4,9.5,2.1,13.9c-3.2,4.4-9.5,5.4-13.9,2.2l-148.1-109c-3.5-2.6-8.3-2.6-11.9,0l-148.1,109c-4.4,3.2-10.7,2.3-13.9-2.1
		c-1.6-2.1-2.2-4.8-1.8-7.4c0.4-2.6,1.8-4.9,4-6.5l47.6-35c4.4-3.3,5.4-9.5,2.1-14c-3.3-4.5-9.5-5.4-14-2.1l-47.5,35
		C5.8,128.1,1.6,135.1,0.4,143c-1.2,7.9,0.7,15.8,5.4,22.3c8.4,11.5,23.6,15.2,36.2,9.7v136.3c-11.6,4.1-20,15.2-20,28.3
		c0,13,8.4,24.2,20,28.3V502c0,5.5,4.5,10,10,10h408c5.5,0,10-4.5,10-10V367c12.6,5.5,27.8,1.8,36.2-9.7
		C516,344,513.1,325.2,499.8,315.4 M349.7,177.5c9.2,0,18.3-4.2,24.2-12.2c9.8-13.3,6.9-32.1-6.4-41.9L353.3,113
		c12.6-12.4,20.9-25.2,26.8-34.3c6.2-9.6,7.9-9.6,9.3-9.6c1.5,0,3.1,0,9.3,9.6c9.9,15.3,28,43.3,62.9,59.4
		c-9.1,4.5-19.7,6.8-33.8,7.5c-3.7,0.2-7,2.4-8.6,5.7c-1.6,3.3-1.2,7.3,1,10.3c12.5,16.8,29.7,32,50,44.3c-8.7,2.1-17.2,3.5-26,4.2
		c-3.9,0.3-7.3,2.9-8.6,6.6c-1.3,3.7-0.4,7.8,2.4,10.5c15,14.7,31.5,29.8,51,41.8c-13.5,3.4-27.4,6.2-41.4,8.2l-107.8-79.3
		c-0.7-0.5-1.4-1-2.2-1.4V175C341.5,176.7,345.6,177.5,349.7,177.5 M52,329.5h82c-0.6,1.8-1.1,3.6-1.4,5.5c-0.8,5-0.3,9.9,1.3,14.5
		H52c-5.5,0-10-4.5-10-10C42,334,46.5,329.5,52,329.5 M62,492V369.5h100.2c0,0,0.1,0,0.1,0c0,0,0.1,0,0.1,0h11.9V492H62z
		 M242.2,429.5h160v20h-160V429.5z M402.2,409.5h-160v-10c0-5.5,4.5-10,10-10h140c5.5,0,10,4.5,10,10V409.5z M242.2,469.5h160V492
		h-160V469.5z M422.2,492v-92.4c0-16.5-13.5-30-30-30h-140c-16.5,0-30,13.5-30,30V492h-27.8V353.2l127.8-94.1L450,353.2V492H422.2z
		 M490.1,345.4c-3.2,4.4-9.5,5.4-13.9,2.2l-148.1-109c-3.5-2.6-8.3-2.6-11.9,0l-148.1,109c-2.1,1.6-4.8,2.2-7.4,1.8
		c-2.6-0.4-4.9-1.8-6.5-4c-1.6-2.1-2.2-4.8-1.8-7.4c0.4-2.6,1.8-4.9,4-6.5l12.3-9c4.4-3.3,5.4-9.5,2.1-14c-3.3-4.4-9.5-5.4-14-2.1
		l-4.3,3.1H62V161.2l127.8-94.1l127.8,94.1v31.2c-4.9,0.7-9.6,2.6-13.7,5.7l-6.3,4.7V190c0-5.5-4.5-10-10-10H92c-5.5,0-10,4.5-10,10
		v60c0,5.5,4.5,10,10,10h128.1c-3.4,3.4-4,9-1,13c3.3,4.4,9.5,5.4,14,2.1l82.8-60.9c0.1,0,0.1-0.1,0.2-0.1c3.5-2.7,8.4-2.7,11.9-0.1
		l159.9,117.7C492.4,334.8,493.3,341,490.1,345.4 M102,200h45.2v40H102V200z M167.2,200h45.2v40h-45.2V200z M247.1,240h-14.6v-40
		h45.2v17.5L247.1,240z"/>
	<path class="st0" d="M189.9,161.7c16.5,0,30-13.5,30-30c0-16.5-13.5-30-30-30c-16.5,0-30,13.5-30,30
		C159.9,148.3,173.3,161.7,189.9,161.7 M189.9,121.7c5.5,0,10,4.5,10,10c0,5.5-4.5,10-10,10c-5.5,0-10-4.5-10-10
		C179.9,126.2,184.3,121.7,189.9,121.7"/>
	<path class="st0" d="M322.2,293.7c-16.5,0-30,13.5-30,30c0,16.5,13.5,30,30,30s30-13.5,30-30C352.2,307.2,338.7,293.7,322.2,293.7
		 M322.2,333.7c-5.5,0-10-4.5-10-10s4.5-10,10-10c5.5,0,10,4.5,10,10S327.7,333.7,322.2,333.7"/>
	<path class="st0" d="M97.9,82.8c2.3,0,4.5-0.8,6.4-2.3l0,0c4.2-3.5,4.8-9.8,1.3-14.1c-3.5-4.2-9.8-4.8-14.1-1.3
		c-4.2,3.5-4.8,9.8-1.3,14.1C92.2,81.6,95.1,82.8,97.9,82.8"/>
	<path class="st0" d="M189,282.7c-4.4,3.3-5.3,9.6-2,14c2,2.6,5,4,8,4c2.1,0,4.2-0.7,6-2l0,0c4.4-3.3,5.3-9.6,2-14
		C199.7,280.3,193.4,279.4,189,282.7"/>
</g>
</svg>
