<?xml version="1.0" encoding="utf-8"?>
<!-- Generator: Adobe Illustrator 19.0.0, SVG Export Plug-In . SVG Version: 6.00 Build 0)  -->
<svg version="1.1" id="Layer_1" xmlns="http://www.w3.org/2000/svg" xmlns:xlink="http://www.w3.org/1999/xlink" x="0px" y="0px"
	 viewBox="0 0 512 512" style="enable-background:new 0 0 512 512;" xml:space="preserve">
<style type="text/css">
	.st0{clip-path:url(#SVGID_2_);fill:#878787;}
</style>
<g>
	<defs>
		<rect id="SVGID_1_" width="512" height="512"/>
	</defs>
	<clipPath id="SVGID_2_">
		<use xlink:href="#SVGID_1_"  style="overflow:visible;"/>
	</clipPath>
	<path class="st0" d="M230.4,294.4c0,4.7,3.8,8.5,8.5,8.5s8.5-3.8,8.5-8.5c0-28.2-26.1-51.6-59.7-55v-9c0-4.7-3.8-8.5-8.5-8.5
		c-4.7,0-8.5,3.8-8.5,8.5v9c-33.6,3.4-59.7,26.8-59.7,55c0,28.2,26.1,51.6,59.7,55v76.7c-24.2-3.1-42.7-18.8-42.7-37.8
		c0-4.7-3.8-8.5-8.5-8.5c-4.7,0-8.5,3.8-8.5,8.5c0,28.2,26.1,51.6,59.7,55v9c0,4.7,3.8,8.5,8.5,8.5c4.7,0,8.5-3.8,8.5-8.5v-9
		c33.6-3.4,59.7-26.8,59.7-55s-26.1-51.6-59.7-55v-76.7C211.9,259.6,230.4,275.4,230.4,294.4 M128,294.4c0-19,18.5-34.8,42.7-37.8
		v75.6C146.5,329.2,128,313.4,128,294.4 M230.4,388.3c0,19-18.5,34.8-42.7,37.8v-75.6C211.9,353.5,230.4,369.3,230.4,388.3"/>
	<path class="st0" d="M30.7,257.5c-4.3-2-9.3-0.1-11.3,4.1C6.5,289.3-0.1,319.4,0,349.9C0,457.4,60.3,512,179.2,512
		c24,0.4,48-2.4,71.3-8.2c4.6-1.2,7.3-5.9,6.1-10.4c-1.2-4.6-5.9-7.3-10.4-6.1c-21.9,5.4-44.4,8-66.9,7.6
		c-109.1,0-162.1-47.5-162.1-145.1c-0.2-28,5.9-55.7,17.8-81.1C36.9,264.5,35,259.4,30.7,257.5"/>
	<path class="st0" d="M486.4,213.3H298.7c-14.1,0-25.6,11.5-25.6,25.6v247.5c0,14.1,11.5,25.6,25.6,25.6h187.7
		c14.1,0,25.6-11.5,25.6-25.6V238.9C512,224.8,500.5,213.3,486.4,213.3 M494.9,486.4c0,4.7-3.8,8.5-8.5,8.5H298.7
		c-4.7,0-8.5-3.8-8.5-8.5V238.9c0-4.7,3.8-8.5,8.5-8.5h187.7c4.7,0,8.5,3.8,8.5,8.5V486.4z"/>
	<path class="st0" d="M332.8,324.3h119.5c9.4,0,17.1-7.6,17.1-17.1v-34.1c0-9.4-7.6-17.1-17.1-17.1H332.8c-9.4,0-17.1,7.6-17.1,17.1
		v34.1C315.7,316.6,323.4,324.3,332.8,324.3 M332.8,273.1h119.5v34.1H332.8V273.1z"/>
	<path class="st0" d="M349.9,349.9h-25.6c-4.7,0-8.5,3.8-8.5,8.5c0,4.7,3.8,8.5,8.5,8.5h25.6c4.7,0,8.5-3.8,8.5-8.5
		C358.4,353.7,354.6,349.9,349.9,349.9"/>
	<path class="st0" d="M349.9,384h-25.6c-4.7,0-8.5,3.8-8.5,8.5c0,4.7,3.8,8.5,8.5,8.5h25.6c4.7,0,8.5-3.8,8.5-8.5
		C358.4,387.8,354.6,384,349.9,384"/>
	<path class="st0" d="M349.9,418.1h-25.6c-4.7,0-8.5,3.8-8.5,8.5c0,4.7,3.8,8.5,8.5,8.5h25.6c4.7,0,8.5-3.8,8.5-8.5
		C358.4,421.9,354.6,418.1,349.9,418.1"/>
	<path class="st0" d="M349.9,452.3h-25.6c-4.7,0-8.5,3.8-8.5,8.5c0,4.7,3.8,8.5,8.5,8.5h25.6c4.7,0,8.5-3.8,8.5-8.5
		C358.4,456.1,354.6,452.3,349.9,452.3"/>
	<path class="st0" d="M409.6,349.9H384c-4.7,0-8.5,3.8-8.5,8.5c0,4.7,3.8,8.5,8.5,8.5h25.6c4.7,0,8.5-3.8,8.5-8.5
		C418.1,353.7,414.3,349.9,409.6,349.9"/>
	<path class="st0" d="M409.6,384H384c-4.7,0-8.5,3.8-8.5,8.5c0,4.7,3.8,8.5,8.5,8.5h25.6c4.7,0,8.5-3.8,8.5-8.5
		C418.1,387.8,414.3,384,409.6,384"/>
	<path class="st0" d="M409.6,418.1H384c-4.7,0-8.5,3.8-8.5,8.5c0,4.7,3.8,8.5,8.5,8.5h25.6c4.7,0,8.5-3.8,8.5-8.5
		C418.1,421.9,414.3,418.1,409.6,418.1"/>
	<path class="st0" d="M409.6,452.3H384c-4.7,0-8.5,3.8-8.5,8.5c0,4.7,3.8,8.5,8.5,8.5h25.6c4.7,0,8.5-3.8,8.5-8.5
		C418.1,456.1,414.3,452.3,409.6,452.3"/>
	<path class="st0" d="M469.3,349.9h-25.6c-4.7,0-8.5,3.8-8.5,8.5c0,4.7,3.8,8.5,8.5,8.5h25.6c4.7,0,8.5-3.8,8.5-8.5
		C477.9,353.7,474,349.9,469.3,349.9"/>
	<path class="st0" d="M469.3,384h-25.6c-4.7,0-8.5,3.8-8.5,8.5c0,4.7,3.8,8.5,8.5,8.5h25.6c4.7,0,8.5-3.8,8.5-8.5
		C477.9,387.8,474,384,469.3,384"/>
	<path class="st0" d="M469.3,418.1h-25.6c-4.7,0-8.5,3.8-8.5,8.5c0,4.7,3.8,8.5,8.5,8.5h25.6c4.7,0,8.5-3.8,8.5-8.5
		C477.9,421.9,474,418.1,469.3,418.1"/>
	<path class="st0" d="M469.3,452.3h-25.6c-4.7,0-8.5,3.8-8.5,8.5c0,4.7,3.8,8.5,8.5,8.5h25.6c4.7,0,8.5-3.8,8.5-8.5
		C477.9,456.1,474,452.3,469.3,452.3"/>
	<path class="st0" d="M54,10.8C31.5,31.4,71,94.8,94.2,128h-4.6c-7.9,0-15.5,3.1-21.1,8.7c-5.6,5.6-8.7,13.2-8.7,21.1
		c0,10.6,5.7,20.4,15,25.7c-10,10.5-19.3,21.6-28.1,33.2c-2.8,3.8-2.1,9.1,1.7,11.9c3.8,2.8,9.1,2.1,11.9-1.7
		c10.5-13.8,21.9-26.9,34.1-39.3h174.4c10.7,0,20.5-5.7,25.9-14.9c5.3-9.2,5.3-20.6,0-29.9c-5.3-9.2-15.2-14.9-25.9-14.9h-4.6
		c23.3-33.2,62.7-96.6,40.3-117.2c-10.3-9.5-22.4-2.6-33,3.5c-9.6,6.6-20.9,10.5-32.5,11.4c-9.3,0-18.1-3.9-24.3-10.8
		C205.3,5.3,192.5,0,179.2,0c-13.3,0-26.1,5.3-35.4,14.8c-6.3,6.8-15.1,10.7-24.4,10.8c-11.7-0.8-22.9-4.7-32.5-11.4
		C76.3,8.2,64.3,1.3,54,10.8 M277.9,148.8c3.7,3.7,4.8,9.2,2.8,14c-2,4.8-6.7,7.9-11.9,7.9H89.6c-7.1,0-12.8-5.7-12.8-12.8
		c0-7.1,5.7-12.8,12.8-12.8h179.2C272.2,145.1,275.5,146.4,277.9,148.8 M119.4,42.7c13.3,0,26.1-5.4,35.4-14.9
		c6.2-6.8,15.1-10.7,24.3-10.7c9.3,0,18.1,3.9,24.3,10.7c9.4,9.5,22.1,14.9,35.5,14.9c14.7-0.8,28.8-5.5,41-13.6
		c3.9-2.8,8.3-4.7,13-5.7c8.8,8-14.4,56.4-49.8,104.6h-21.3V85.3c0-4.7-3.8-8.5-8.5-8.5c-4.7,0-8.5,3.8-8.5,8.5V128h-51.2V85.3
		c0-4.7-3.8-8.5-8.5-8.5s-8.5,3.8-8.5,8.5V128h-21.3C79.9,79.7,56.7,31.4,65.6,23.2c4.6,1.2,8.9,3.2,12.8,5.8
		C90.6,37.2,104.8,41.9,119.4,42.7"/>
</g>
</svg>
