<?xml version="1.0" encoding="utf-8"?>
<!-- Generator: Adobe Illustrator 19.0.0, SVG Export Plug-In . SVG Version: 6.00 Build 0)  -->
<svg version="1.1" id="Layer_1" xmlns="http://www.w3.org/2000/svg" xmlns:xlink="http://www.w3.org/1999/xlink" x="0px" y="0px"
	 viewBox="0 0 230 203" style="enable-background:new 0 0 230 203;" xml:space="preserve">
<style type="text/css">
	.st0{fill:#fff;}
	.st1{fill:#fff;}
</style>
<path id="XMLID_24_" class="st0" d="M16.6,172.8c0.9,0.4,1.8,0.9,2.7,1.6c0.2,0.2,0.5,0.3,0.6,0.3c0.4,0,0.7-0.7,0.9-2h0.8
	c-0.1,1.5-0.1,4.2-0.1,8h-0.8c-0.2-1.6-0.5-2.9-0.8-3.7c-0.3-0.9-0.9-1.6-1.7-2.3c-0.6-0.5-1.2-0.9-1.9-1.2
	c-0.7-0.3-1.5-0.4-2.3-0.4c-2.2,0-3.9,1.1-5,3.3c-1.1,2.2-1.6,4.9-1.6,8.1c0,3.2,0.6,5.9,1.7,8.1c1.1,2.2,2.8,3.2,5,3.2
	c0.7,0,1.5-0.1,2.2-0.4c0.7-0.3,1.4-0.7,1.9-1.2c0.8-0.6,1.4-1.4,1.7-2.3c0.3-0.9,0.6-2.3,0.7-4.1h0.8c0,4,0,6.8,0.1,8.3h-0.8
	c-0.1-0.7-0.2-1.2-0.3-1.5c-0.1-0.3-0.3-0.4-0.5-0.4c-0.2,0-0.4,0.1-0.7,0.3c-1,0.7-1.9,1.2-2.8,1.6c-0.9,0.4-2,0.5-3.3,0.5
	c-2.3,0-4.4-0.5-6.1-1.4c-1.8-0.9-3.1-2.3-4.1-4.1c-1-1.8-1.5-3.9-1.5-6.4c0-2.4,0.5-4.6,1.5-6.5c1-1.9,2.4-3.3,4.2-4.4
	c1.8-1,3.8-1.6,6.1-1.6C14.6,172.2,15.7,172.4,16.6,172.8"/>
<path id="XMLID_52_" class="st0" d="M38.3,191.2l0.6,0.2c-0.4,1.4-1.2,2.7-2.4,3.7c-1.1,1-2.6,1.5-4.3,1.5c-2.3,0-4.2-0.7-5.6-2.2
	c-1.4-1.5-2.1-3.7-2.1-6.6c0-3,0.7-5.3,2.2-6.8c1.5-1.6,3.4-2.4,5.9-2.4c4.1,0,6.2,2.5,6.2,7.3h-9.3c0,0.3,0,0.8,0,1.6
	c0,1.5,0.2,2.7,0.6,3.6c0.4,1,0.9,1.7,1.6,2.1c0.7,0.4,1.3,0.7,2.1,0.7C35.8,193.9,37.2,193,38.3,191.2 M30.6,180.7
	c-0.5,1-0.8,2.5-1,4.6h5.2c0-1.7-0.1-3.2-0.5-4.3c-0.4-1.1-1-1.7-1.7-1.7C31.8,179.2,31.1,179.7,30.6,180.7"/>
<path id="XMLID_21_" class="st0" d="M56.9,179.8c0.4,0.4,0.6,1,0.8,1.6c0.2,0.7,0.2,1.6,0.2,2.7v8.9c0,0.9,0.2,1.5,0.5,1.9
	c0.3,0.3,0.9,0.5,1.6,0.5v0.7c-2.2-0.1-3.7-0.1-4.4-0.1c-0.7,0-2.1,0-4.3,0.1v-0.7c0.7,0,1.1-0.2,1.4-0.5c0.3-0.3,0.4-1,0.4-1.9
	v-10.3c0-0.9-0.1-1.6-0.4-2.1c-0.3-0.5-0.8-0.7-1.6-0.7c-0.9,0-1.7,0.4-2.3,1.1c-0.6,0.7-1,1.7-1,2.7v9.2c0,0.9,0.1,1.5,0.4,1.9
	c0.3,0.3,0.7,0.5,1.4,0.5v0.7c-2-0.1-3.4-0.1-4.1-0.1c-0.7,0-2.2,0-4.6,0.1v-0.7c0.8,0,1.3-0.2,1.7-0.5c0.3-0.3,0.5-1,0.5-1.9v-10.4
	c0-1-0.2-1.8-0.5-2.2c-0.3-0.5-0.9-0.7-1.7-0.7V179c0.7,0.1,1.4,0.1,2.1,0.1c2,0,3.6-0.2,4.8-0.5v3c1-2.1,2.8-3.1,5.4-3.1
	C54.9,178.5,56.1,179,56.9,179.8"/>
<path id="XMLID_20_" class="st0" d="M67.9,179h3.9v0.7h-3.9V193c0,0.7,0.1,1.1,0.3,1.4c0.2,0.3,0.6,0.4,1.1,0.4c0.9,0,1.7-0.7,2.2-2
	l0.6,0.3c-0.8,2.3-2.4,3.4-4.5,3.4c-1.5,0-2.6-0.4-3.3-1.1c-0.5-0.5-0.8-1-0.9-1.7c-0.2-0.7-0.2-1.7-0.2-2.9v-11.2h-2.8V179h2.8
	v-4.4c1.8,0,3.4-0.4,4.8-1.1V179z"/>
<path id="XMLID_19_" class="st0" d="M86.5,179.4c0.5,0.6,0.8,1.3,0.8,2.2c0,0.8-0.2,1.5-0.7,2c-0.5,0.5-1.1,0.8-1.9,0.8
	c-0.7,0-1.3-0.2-1.8-0.6c-0.4-0.4-0.7-0.9-0.7-1.5c0-1.1,0.5-1.9,1.5-2.6c-0.1,0-0.2,0-0.4,0c-0.2,0-0.4,0-0.5,0.1
	c-0.8,0.1-1.6,0.6-2.1,1.5c-0.6,0.9-0.9,1.8-0.9,2.7v8.8c0,1,0.2,1.7,0.7,2.1c0.5,0.4,1.3,0.6,2.4,0.6v0.7c-0.3,0-0.6,0-0.8,0
	c-2.2-0.1-3.8-0.1-4.5-0.1c-0.6,0-2,0-4.1,0.1c-0.2,0-0.4,0-0.7,0v-0.7c0.8,0,1.3-0.2,1.7-0.5c0.3-0.3,0.5-1,0.5-1.9v-10.4
	c0-1-0.2-1.8-0.5-2.2c-0.3-0.5-0.9-0.7-1.7-0.7V179c0.7,0.1,1.4,0.1,2.1,0.1c2,0,3.6-0.2,4.8-0.5v3.1c0.4-0.9,1-1.7,1.8-2.3
	c0.8-0.6,1.7-0.9,2.7-0.9C85.3,178.5,86,178.8,86.5,179.4"/>
<path id="XMLID_46_" class="st0" d="M89.5,195.3c-0.7-0.7-1-1.7-1-2.9c0-1,0.3-1.8,0.8-2.5c0.5-0.6,1.1-1.2,1.9-1.5
	c0.7-0.4,1.7-0.7,2.8-1.1c1.2-0.4,2.1-0.8,2.7-1.1c0.6-0.3,0.8-0.8,0.8-1.4v-2.6c0-0.9-0.2-1.6-0.6-2.2c-0.4-0.5-1.1-0.8-2-0.8
	c-1.1,0-1.9,0.3-2.4,0.8c0.6,0.2,1.1,0.6,1.4,1c0.3,0.4,0.5,1,0.5,1.6c0,0.7-0.3,1.3-0.8,1.8c-0.5,0.4-1.1,0.7-1.9,0.7
	c-0.8,0-1.4-0.2-1.8-0.7c-0.4-0.5-0.6-1.1-0.6-1.8c0-0.6,0.2-1.1,0.5-1.6c0.3-0.4,0.8-0.8,1.4-1.2c0.6-0.4,1.3-0.6,2.2-0.8
	c0.9-0.2,1.8-0.3,2.9-0.3c1.1,0,2,0.1,2.8,0.3c0.8,0.2,1.5,0.6,2,1.1c0.5,0.5,0.8,1.1,1,1.8c0.2,0.7,0.2,1.7,0.2,2.9v9
	c0,0.5,0,0.9,0.1,1.1c0.1,0.2,0.3,0.3,0.6,0.3c0.3,0,0.7-0.2,1.2-0.6l0.3,0.6c-1,0.8-2.2,1.2-3.6,1.2c-1.2,0-2.1-0.2-2.5-0.7
	c-0.5-0.5-0.7-1.1-0.8-2c-1.1,1.8-2.7,2.7-4.9,2.7C91.3,196.4,90.2,196,89.5,195.3 M97.5,192.9v-6.8c-0.3,0.4-0.8,0.9-1.7,1.5
	c-0.9,0.6-1.5,1.1-2,1.7c-0.4,0.6-0.7,1.3-0.7,2.4c0,0.9,0.2,1.6,0.6,2c0.4,0.4,0.9,0.6,1.5,0.6C96.1,194.2,96.9,193.8,97.5,192.9"
	/>
<path id="XMLID_16_" class="st0" d="M112.2,193c0,0.9,0.2,1.5,0.5,1.9c0.3,0.3,0.9,0.5,1.7,0.5v0.7c-2.3-0.1-3.8-0.1-4.4-0.1
	c-0.7,0-2.3,0-4.6,0.1v-0.7c0.8,0,1.3-0.2,1.6-0.5c0.3-0.3,0.5-1,0.5-1.9v-18.9c0-1-0.2-1.8-0.5-2.2c-0.3-0.5-0.9-0.7-1.6-0.7v-0.7
	c0.7,0.1,1.4,0.1,2.1,0.1c1.9,0,3.5-0.2,4.8-0.5V193z"/>
<path id="XMLID_15_" class="st0" d="M138.5,172.8c0.9,0.4,1.8,0.9,2.7,1.6c0.2,0.2,0.5,0.3,0.6,0.3c0.4,0,0.7-0.7,0.9-2h0.8
	c-0.1,1.5-0.1,4.2-0.1,8h-0.8c-0.2-1.6-0.5-2.9-0.8-3.7c-0.3-0.9-0.9-1.6-1.7-2.3c-0.6-0.5-1.2-0.9-1.9-1.2
	c-0.7-0.3-1.5-0.4-2.3-0.4c-2.2,0-3.9,1.1-5,3.3c-1.1,2.2-1.6,4.9-1.6,8.1c0,3.2,0.6,5.9,1.7,8.1c1.1,2.2,2.8,3.2,5,3.2
	c0.7,0,1.5-0.1,2.2-0.4c0.7-0.3,1.4-0.7,1.9-1.2c0.8-0.6,1.4-1.4,1.7-2.3c0.3-0.9,0.6-2.3,0.7-4.1h0.8c0,4,0,6.8,0.1,8.3h-0.8
	c-0.1-0.7-0.2-1.2-0.3-1.5c-0.1-0.3-0.3-0.4-0.5-0.4c-0.2,0-0.4,0.1-0.7,0.3c-1,0.7-1.9,1.2-2.8,1.6c-0.9,0.4-2,0.5-3.3,0.5
	c-2.3,0-4.4-0.5-6.1-1.4c-1.8-0.9-3.1-2.3-4.1-4.1c-1-1.8-1.5-3.9-1.5-6.4c0-2.4,0.5-4.6,1.5-6.5c1-1.9,2.4-3.3,4.2-4.4
	c1.8-1,3.8-1.6,6.1-1.6C136.5,172.2,137.6,172.4,138.5,172.8"/>
<path id="XMLID_41_" class="st0" d="M147.3,195.3c-0.7-0.7-1-1.7-1-2.9c0-1,0.3-1.8,0.8-2.5c0.5-0.6,1.1-1.2,1.9-1.5
	c0.7-0.4,1.7-0.7,2.8-1.1c1.2-0.4,2.1-0.8,2.7-1.1c0.6-0.3,0.8-0.8,0.8-1.4v-2.6c0-0.9-0.2-1.6-0.6-2.2c-0.4-0.5-1.1-0.8-2-0.8
	c-1.1,0-1.9,0.3-2.4,0.8c0.6,0.2,1.1,0.6,1.4,1c0.3,0.4,0.5,1,0.5,1.6c0,0.7-0.3,1.3-0.8,1.8c-0.5,0.4-1.1,0.7-1.9,0.7
	c-0.8,0-1.4-0.2-1.8-0.7c-0.4-0.5-0.6-1.1-0.6-1.8c0-0.6,0.2-1.1,0.5-1.6c0.3-0.4,0.8-0.8,1.4-1.2c0.6-0.4,1.3-0.6,2.2-0.8
	c0.9-0.2,1.8-0.3,2.9-0.3c1.1,0,2,0.1,2.8,0.3c0.8,0.2,1.5,0.6,2,1.1c0.5,0.5,0.8,1.1,1,1.8c0.2,0.7,0.2,1.7,0.2,2.9v9
	c0,0.5,0,0.9,0.1,1.1c0.1,0.2,0.3,0.3,0.6,0.3c0.3,0,0.7-0.2,1.2-0.6l0.3,0.6c-1,0.8-2.2,1.2-3.6,1.2c-1.2,0-2.1-0.2-2.5-0.7
	c-0.5-0.5-0.7-1.1-0.8-2c-1.1,1.8-2.7,2.7-4.9,2.7C149.1,196.4,148,196,147.3,195.3 M155.3,192.9v-6.8c-0.3,0.4-0.8,0.9-1.7,1.5
	c-0.9,0.6-1.5,1.1-2,1.7c-0.4,0.6-0.7,1.3-0.7,2.4c0,0.9,0.2,1.6,0.6,2c0.4,0.4,0.9,0.6,1.5,0.6
	C153.9,194.2,154.6,193.8,155.3,192.9"/>
<path id="XMLID_38_" class="st0" d="M178.2,179.5c0.9,0.6,1.6,1.5,2.1,2.8c0.5,1.2,0.8,2.7,0.8,4.5c0,3.2-0.7,5.6-2.1,7.3
	c-1.4,1.7-3.2,2.5-5.6,2.5c-0.7,0-1.3-0.1-1.9-0.3c-0.6-0.2-1.1-0.4-1.5-0.8v3.3c0,1,0.2,1.6,0.7,2c0.5,0.4,1.2,0.6,2.3,0.6v0.7
	l-0.9,0c-2.4-0.1-4-0.1-4.7-0.1c-0.7,0-2.1,0-4.2,0.1v-0.7c0.7,0,1.2-0.2,1.5-0.5c0.3-0.3,0.4-0.9,0.4-1.8v-16.6
	c0-1-0.2-1.8-0.5-2.2c-0.3-0.5-0.9-0.7-1.6-0.7V179c0.7,0.1,1.4,0.1,2.1,0.1c1.9,0,3.5-0.2,4.8-0.5v3c0.5-1,1.1-1.8,2-2.3
	c0.9-0.5,1.9-0.8,3.1-0.8C176.3,178.5,177.3,178.9,178.2,179.5 M175.1,193.6c0.6-1.4,0.9-3.4,0.9-6.1s-0.2-4.6-0.7-5.8
	c-0.5-1.1-1.2-1.7-2.1-1.7c-0.8,0-1.4,0.3-2,0.8c-0.6,0.5-1,1.2-1.2,2.1v11.9c0.5,0.6,1.2,0.9,2.1,0.9
	C173.5,195.7,174.5,195,175.1,193.6"/>
<path id="XMLID_35_" class="st0" d="M189.8,193c0,0.9,0.2,1.5,0.5,1.9c0.3,0.3,0.9,0.5,1.6,0.5v0.7c-2.2-0.1-3.7-0.1-4.4-0.1
	c-0.7,0-2.2,0-4.6,0.1v-0.7c0.8,0,1.3-0.2,1.7-0.5c0.3-0.3,0.5-1,0.5-1.9v-10.4c0-1-0.2-1.8-0.5-2.2c-0.3-0.5-0.9-0.7-1.7-0.7V179
	c0.7,0.1,1.4,0.1,2.1,0.1c2,0,3.6-0.2,4.8-0.5V193z M189.5,171.2c0.5,0.5,0.8,1.1,0.8,1.9c0,0.8-0.3,1.4-0.8,1.9
	c-0.5,0.5-1.3,0.7-2.2,0.7c-0.9,0-1.7-0.2-2.2-0.7c-0.5-0.5-0.8-1.1-0.8-1.9c0-0.8,0.3-1.4,0.8-1.9c0.5-0.5,1.3-0.7,2.2-0.7
	C188.2,170.5,188.9,170.7,189.5,171.2"/>
<path id="XMLID_8_" class="st0" d="M200.1,179h3.9v0.7h-3.9V193c0,0.7,0.1,1.1,0.3,1.4c0.2,0.3,0.6,0.4,1.1,0.4c0.9,0,1.7-0.7,2.2-2
	l0.6,0.3c-0.8,2.3-2.4,3.4-4.5,3.4c-1.5,0-2.6-0.4-3.3-1.1c-0.5-0.5-0.8-1-0.9-1.7c-0.2-0.7-0.2-1.7-0.2-2.9v-11.2h-2.8V179h2.8
	v-4.4c1.8,0,3.4-0.4,4.8-1.1V179z"/>
<path id="XMLID_31_" class="st0" d="M204.2,195.3c-0.7-0.7-1-1.7-1-2.9c0-1,0.3-1.8,0.8-2.5c0.5-0.6,1.1-1.2,1.9-1.5
	c0.7-0.4,1.7-0.7,2.8-1.1c1.2-0.4,2.1-0.8,2.7-1.1c0.6-0.3,0.8-0.8,0.8-1.4v-2.6c0-0.9-0.2-1.6-0.6-2.2c-0.4-0.5-1.1-0.8-2-0.8
	c-1.1,0-1.9,0.3-2.4,0.8c0.6,0.2,1.1,0.6,1.4,1c0.3,0.4,0.5,1,0.5,1.6c0,0.7-0.3,1.3-0.8,1.8c-0.5,0.4-1.1,0.7-1.9,0.7
	c-0.8,0-1.4-0.2-1.8-0.7c-0.4-0.5-0.6-1.1-0.6-1.8c0-0.6,0.2-1.1,0.5-1.6c0.3-0.4,0.8-0.8,1.4-1.2c0.6-0.4,1.3-0.6,2.2-0.8
	c0.9-0.2,1.8-0.3,2.9-0.3c1.1,0,2,0.1,2.8,0.3c0.8,0.2,1.5,0.6,2,1.1c0.5,0.5,0.8,1.1,1,1.8c0.2,0.7,0.2,1.7,0.2,2.9v9
	c0,0.5,0,0.9,0.1,1.1c0.1,0.2,0.3,0.3,0.6,0.3c0.3,0,0.7-0.2,1.2-0.6l0.3,0.6c-1,0.8-2.2,1.2-3.6,1.2c-1.2,0-2.1-0.2-2.5-0.7
	c-0.5-0.5-0.7-1.1-0.8-2c-1.1,1.8-2.7,2.7-4.9,2.7C205.9,196.4,204.9,196,204.2,195.3 M212.2,192.9v-6.8c-0.3,0.4-0.8,0.9-1.7,1.5
	c-0.9,0.6-1.5,1.1-2,1.7c-0.4,0.6-0.7,1.3-0.7,2.4c0,0.9,0.2,1.6,0.6,2c0.4,0.4,0.9,0.6,1.5,0.6
	C210.8,194.2,211.5,193.8,212.2,192.9"/>
<path id="XMLID_5_" class="st0" d="M226.9,193c0,0.9,0.2,1.5,0.5,1.9c0.3,0.3,0.9,0.5,1.7,0.5v0.7c-2.3-0.1-3.8-0.1-4.4-0.1
	c-0.7,0-2.3,0-4.6,0.1v-0.7c0.8,0,1.3-0.2,1.6-0.5s0.5-1,0.5-1.9v-18.9c0-1-0.2-1.8-0.5-2.2c-0.3-0.5-0.9-0.7-1.6-0.7v-0.7
	c0.7,0.1,1.4,0.1,2.1,0.1c1.9,0,3.5-0.2,4.8-0.5V193z"/>
<path id="XMLID_4_" class="st1" d="M160.6,22.6c-9.5-13.3-25-21.3-41.4-21.3c-28.1,0-50.9,22.8-50.9,50.9s22.8,50.9,50.9,50.9
	c16.9,0,32.6-8.3,42.1-22.3c-3.8-3.2-8.7-5-14-5c-4,0-7.8,1-11,2.9c-5.1,3.3-11,5.1-17.2,5.1c-17.4,0-31.6-14.2-31.6-31.6
	c0-17.4,14.2-31.6,31.6-31.6c5.8,0,11.3,1.6,16.1,4.5c3.2,1.9,6.9,2.8,10.9,2.8c4,0,7.8-1.1,11.1-3l3.1-2.2L160.6,22.6z"/>
<path id="XMLID_3_" class="st1" d="M183.3,139.8H63.7H46.4c-2.5,0-2.5,3.9,0,3.9H166h17.3C185.8,143.7,185.9,139.8,183.3,139.8"/>
<path id="XMLID_2_" class="st1" d="M161.8,127.5h-82H67.9c-2.5,0-2.5,3.9,0,3.9h82h11.9C164.3,131.5,164.3,127.5,161.8,127.5"/>
<path id="XMLID_1_" class="st1" d="M148.5,115.3H81.2c-2.5,0-2.5,3.9,0,3.9h67.3C151,119.2,151.1,115.3,148.5,115.3"/>
</svg>
