<?xml version="1.0" encoding="utf-8"?>
<!-- Generator: Adobe Illustrator 19.0.0, SVG Export Plug-In . SVG Version: 6.00 Build 0)  -->
<svg version="1.1" id="Layer_1" xmlns="http://www.w3.org/2000/svg" xmlns:xlink="http://www.w3.org/1999/xlink" x="0px" y="0px"
	 viewBox="0 0 423 386.1" style="enable-background:new 0 0 423 386.1;" xml:space="preserve">
<style type="text/css">
	.st0{clip-path:url(#SVGID_2_);fill:#878787;}
</style>
<g>
	<defs>
		<rect id="SVGID_1_" width="423" height="386.1"/>
	</defs>
	<clipPath id="SVGID_2_">
		<use xlink:href="#SVGID_1_"  style="overflow:visible;"/>
	</clipPath>
	<path class="st0" d="M144.3,219.5c-35.7,0-65.1-27.5-68.2-62.4c-9.2-2-17.2-8.2-21.3-16.9c-1.6-3.4-0.2-7.5,3.2-9.1
		c3.4-1.6,7.5-0.2,9.1,3.2c2.8,6,8.9,9.8,15.5,9.8c3.8,0,6.8,3.1,6.8,6.8c0,30.3,24.6,54.9,54.9,54.9c18.5,0,35.7-9.3,45.9-24.8
		c2.1-3.2,6.3-4,9.5-2c3.1,2.1,4,6.3,2,9.4C188.8,207.9,167.4,219.5,144.3,219.5"/>
	<path class="st0" d="M210.1,113.2H62.7c-3.8,0-6.8-3.1-6.8-6.8c0-43.3,28-78.4,69.7-87.3c3.7-0.8,7.3,1.5,8.1,5.2
		c0.8,3.7-1.6,7.3-5.2,8.1c-33,7.1-55.9,33.7-58.6,67.2h140.3c3.8,0,6.8,3.1,6.8,6.8C216.9,110.1,213.9,113.2,210.1,113.2"/>
	<path class="st0" d="M225.6,93.1c-3.1,0-5.9-2.1-6.6-5.3c-6.4-27.4-27.6-48.5-55.1-55.1c-3.7-0.9-5.9-4.5-5.1-8.2
		c0.9-3.7,4.5-5.9,8.2-5.1c32.6,7.8,57.6,32.8,65.3,65.2c0.9,3.7-1.4,7.3-5.1,8.2C226.6,93,226.1,93.1,225.6,93.1"/>
	<path class="st0" d="M163.7,113.2h-34.1c-3.8,0-6.8-3.1-6.8-6.8V96.2c0-3.8,3.1-6.8,6.8-6.8c3.8,0,6.8,3.1,6.8,6.8v3.3h20.5v-2.4
		c0-3.8,3.1-6.8,6.8-6.8c3.8,0,6.8,3.1,6.8,6.8v9.2C170.6,110.1,167.5,113.2,163.7,113.2"/>
	<path class="st0" d="M163.7,80.3c-3.8,0-6.8-3.1-6.8-6.8v-59c-3.5-0.6-6.2-0.8-10.2-0.8c-3.7,0-7.5,0.2-10.2,0.4v58.2
		c0,3.8-3.1,6.8-6.8,6.8c-3.8,0-6.8-3.1-6.8-6.8V8.8c0-7.4,7.7-8.8,23.9-8.8c7.2,0,11.3,0.8,18.2,2c3.2,0.6,5.7,3.4,5.7,6.7v64.7
		C170.6,77.2,167.5,80.3,163.7,80.3"/>
	<path class="st0" d="M200,140.5h-159c-3.8,0-6.8-3.1-6.8-6.8v-27.3c0-3.8,3.1-6.8,6.8-6.8h169.2c3.8,0,6.8,3.1,6.8,6.8
		c0,3.8-3.1,6.8-6.8,6.8H47.8v13.6H200c3.8,0,6.8,3.1,6.8,6.8C206.8,137.4,203.8,140.5,200,140.5"/>
	<path class="st0" d="M146.7,338.3H6.8c-3.8,0-6.8-3.1-6.8-6.8v-10.6c0-53.8,41.1-100.5,95.7-108.7c2.5-0.4,5.1,0.7,6.6,2.8
		c9.5,13.3,26.9,21.9,44.3,21.9c16.5,0,31.6-8,41.5-21.8c1.5-2.1,4.1-3.2,6.6-2.8c14.3,2.2,27.8,7.1,40.1,14.6
		c3.2,2,4.2,6.2,2.2,9.4c-2,3.2-6.2,4.2-9.4,2.3c-9.6-5.9-20-9.9-31-12.1c-12.5,15.4-30.5,24.1-50,24.1c-20.2,0-40.4-9.4-52.7-24.1
		c-45.9,8.7-80.1,48.7-80.1,94.5v3.8h133c3.8,0,6.8,3.1,6.8,6.8C153.5,335.3,150.5,338.3,146.7,338.3"/>
	<path class="st0" d="M228.1,270.8c-0.3,0-0.5,0-0.8,0c-3.7-0.4-6.4-3.8-6-7.5l3-27.2c0.4-3.7,3.8-6.5,7.5-6c3.7,0.4,6.4,3.8,6,7.5
		l-3,27.2C234.5,268.3,231.5,270.8,228.1,270.8"/>
	<path class="st0" d="M146.7,338.3H65.1c-3.5,0-6.4-2.6-6.8-6.1l-10.8-98.1c-0.3-2.6,0.9-5.2,3.2-6.5c7.6-4.8,15.8-7.4,23.6-9.9
		l2-0.6c3.5-1.1,7.2,0.7,8.5,4l19,49H182l19.4-50.6c1.3-3.3,4.9-5.1,8.3-4.1c6.3,1.8,12.3,3.7,18.3,6.3c3.4,1.5,5,5.6,3.4,9
		c-1.5,3.4-5.6,5-9,3.4c-3.3-1.5-6.9-2.7-10.5-3.9l-18.8,49.1c-1,2.6-3.5,4.4-6.4,4.4H99.1c-2.8,0-5.3-1.7-6.4-4.4L74.4,232
		c-4.5,1.5-8.8,3.1-12.8,5.1l9.6,87.6h75.5c3.8,0,6.8,3.1,6.8,6.8C153.5,335.3,150.5,338.3,146.7,338.3"/>
	<path class="st0" d="M281.5,265.2c-35.7,0-65.1-27.5-68.2-62.4c-9.1-2-17.1-8.1-21.2-16.7c-1.6-3.4-0.2-7.5,3.2-9.1
		c3.4-1.6,7.5-0.2,9.1,3.2c2.8,5.9,8.9,9.7,15.5,9.7c3.8,0,6.8,3.1,6.8,6.8c0,30.3,24.6,54.9,54.9,54.9c30.3,0,54.9-24.6,54.9-54.9
		c0-3.8,3.1-6.8,6.8-6.8c6.8,0,12.9-4,15.7-10.2c1.5-3.5,5.6-5,9-3.5c3.4,1.5,5,5.6,3.5,9c-4,9.1-12.1,15.5-21.6,17.6
		C346.7,237.8,317.2,265.2,281.5,265.2"/>
	<path class="st0" d="M365.1,154.1H200c-3.8,0-6.8-3.1-6.8-6.8c0-38.6,30.1-76.7,68.6-86.7c3.6-0.9,7.4,1.2,8.3,4.9
		c0.9,3.6-1.2,7.4-4.9,8.3c-30.5,8-54.8,36.5-58,66.7h150.8c-3.2-29.8-27.1-58.1-57-66.4c-3.6-1-5.8-4.8-4.7-8.4
		c1-3.6,4.8-5.7,8.4-4.8c38.4,10.7,67.3,47.8,67.3,86.4C372,151.1,368.9,154.1,365.1,154.1"/>
	<path class="st0" d="M300.2,154.1h-34.1c-3.8,0-6.8-3.1-6.8-6.8v-15.8c0-3.8,3.1-6.8,6.8-6.8c3.8,0,6.8,3.1,6.8,6.8v9h20.5v-7.9
		c0-3.8,3.1-6.8,6.8-6.8c3.8,0,6.8,3.1,6.8,6.8v14.7C307,151.1,304,154.1,300.2,154.1"/>
	<path class="st0" d="M266.1,115.2c-3.8,0-6.8-3.1-6.8-6.8V54.5c0-7.4,7.7-8.8,23.9-8.8c7.3,0,11.4,0.8,18.3,2
		c3.2,0.6,5.6,3.4,5.6,6.7v53.6c0,3.8-3.1,6.8-6.8,6.8c-3.8,0-6.8-3.1-6.8-6.8V60.2c-3.4-0.6-6.2-0.8-10.2-0.8
		c-3.7,0-7.5,0.2-10.2,0.4v48.5C272.9,112.1,269.8,115.2,266.1,115.2"/>
	<path class="st0" d="M388.9,188.2H184.2c-3.8,0-6.8-3.1-6.8-6.8v-34.1c0-3.8,3.1-6.8,6.8-6.8h204.7c3.8,0,6.8,3.1,6.8,6.8v34.1
		C395.7,185.2,392.7,188.2,388.9,188.2 M191,174.6h191v-20.5H191V174.6z"/>
	<path class="st0" d="M416.2,386.1H143.3c-3.8,0-6.8-3.1-6.8-6.8v-12.6c0-53.8,41.3-100.5,96-108.7c2.5-0.4,5.1,0.7,6.6,2.8
		c9.5,13.3,27,21.9,44.6,21.9c16.6,0,31.3-7.7,41.3-21.8c1.5-2.1,4-3.2,6.6-2.8c53,8,91.5,53.7,91.5,108.6v12.6
		C423,383,419.9,386.1,416.2,386.1 M150.1,372.5h259.3v-5.8c0-46.7-31.7-85.8-76-94.5c-12.5,15.4-30.4,24.1-49.8,24.1
		c-20.4,0-40.7-9.4-53-24.1c-46.1,8.8-80.4,48.7-80.4,94.5V372.5z"/>
	<path class="st0" d="M357.9,386.1H202.3c-3.5,0-6.4-2.6-6.8-6.1l-10.8-98.6c-0.3-2.6,1-5.1,3.2-6.5c8.5-5.3,17.7-8.5,25.6-11.1
		c3.5-1.1,7.2,0.7,8.5,4.1l19,50h78.2l19.4-51.1c1.3-3.3,4.9-5.1,8.3-4.1l3,0.9c7.5,2.1,15.2,4.3,22.5,8.7c2.3,1.4,3.6,3.9,3.3,6.6
		l-11,101.2C364.3,383.5,361.4,386.1,357.9,386.1 M208.4,372.5h143.4l9.8-90.6c-3.9-1.8-8-3.1-12.5-4.4l-18.8,49.7
		c-1,2.7-3.5,4.4-6.4,4.4h-87.6c-2.8,0-5.4-1.8-6.4-4.4l-18.3-48.3c-4.2,1.5-8.6,3.3-12.8,5.5L208.4,372.5z"/>
	<path class="st0" d="M283.1,148.2c-14.6,0-26.5-11.9-26.5-26.5c0-14.6,11.9-26.5,26.5-26.5c14.6,0,26.5,11.9,26.5,26.5
		C309.6,136.3,297.7,148.2,283.1,148.2 M283.1,108.9c-7.1,0-12.8,5.8-12.8,12.8c0,7.1,5.8,12.8,12.8,12.8c7.1,0,12.8-5.8,12.8-12.8
		C296,114.7,290.2,108.9,283.1,108.9"/>
	<path class="st0" d="M146.7,110.9c-14.6,0-26.5-11.9-26.5-26.5c0-14.6,11.9-26.5,26.5-26.5c14.6,0,26.5,11.9,26.5,26.5
		C173.2,99,161.3,110.9,146.7,110.9 M146.7,71.6c-7.1,0-12.8,5.8-12.8,12.8c0,7.1,5.8,12.8,12.8,12.8c7.1,0,12.8-5.8,12.8-12.8
		C159.5,77.3,153.8,71.6,146.7,71.6"/>
</g>
</svg>
