<?xml version="1.0" encoding="utf-8"?>
<!-- Generator: Adobe Illustrator 19.0.0, SVG Export Plug-In . SVG Version: 6.00 Build 0)  -->
<svg version="1.1" id="Layer_1" xmlns="http://www.w3.org/2000/svg" xmlns:xlink="http://www.w3.org/1999/xlink" x="0px" y="0px"
	 viewBox="0 0 512 512" style="enable-background:new 0 0 512 512;" xml:space="preserve">
<style type="text/css">
	.st0{clip-path:url(#SVGID_2_);fill:#878787;}
</style>
<g>
	<defs>
		<rect id="SVGID_1_" width="512" height="512"/>
	</defs>
	<clipPath id="SVGID_2_">
		<use xlink:href="#SVGID_1_"  style="overflow:visible;"/>
	</clipPath>
	<path class="st0" d="M497.4,401.6c19.5,19.5,19.5,51.2,0,70.7c0,0-0.1,0.1-0.1,0.1l-34.2,33.8c-3.9,3.8-9,5.8-14.1,5.8
		c-5.2,0-10.3-2-14.2-5.9c-7.8-7.9-7.7-20.5,0.2-28.3l20-19.8H134c-44.1,0-80-35.9-80-80V56.6L34,76.2C26.2,84,13.5,83.9,5.8,76
		C-2,68.2-1.9,55.5,6,47.8l33.8-33.3c19.4-19.2,51.1-19.2,70.5,0L144,47.8c7.9,7.8,7.9,20.4,0.2,28.3c-3.9,4-9.1,6-14.2,6
		c-5.1,0-10.1-1.9-14-5.8L94,54.6V378c0,22.1,17.9,40,40,40h323l-22-21.8c-7.9-7.8-7.9-20.4-0.2-28.3c7.8-7.9,20.4-7.9,28.3-0.2
		L497.4,401.6C497.3,401.6,497.3,401.6,497.4,401.6 M452,0H193c-11.1,0-20,9-20,20.1c0,11,9,19.9,20,19.9h259c11,0,20,9,20,20v260
		c0,11,8.9,20,19.9,20c11.1,0,20.1-8.9,20.1-20V60C512,26.9,485.1,0,452,0 M294,342.9c11,0,20-9,20-20v-89c0-30.3-24.7-55-55-55
		c-13.3,0-25.5,4.7-35,12.6c-9.5-7.9-21.7-12.6-35-12.6c-7.6,0-14.9,1.6-21.5,4.4c-3.6-3.3-8.3-5.3-13.5-5.3c-11,0-20,9-20,20v125
		c0,11,9,20,20,20s20-9,20-20v-89.1c0-8.3,6.7-15,15-15s15,6.7,15,15V323c0,11,9,20,20,20s20-9,20-20v-89.1c0-8.3,6.7-15,15-15
		c8.3,0,15,6.7,15,15v89C274,333.9,283,342.9,294,342.9 M384.8,108c-0.1,0-0.2,0-0.3,0c-0.1,0-0.2,0-0.3,0
		c-25.4,0-46.1,20.7-46.1,46.2c0,11,9,20,20,20c11,0,20-9,20-20c0-3.4,2.8-6.2,6.1-6.2c0.1,0,0.2,0,0.3,0c0.1,0,0.2,0,0.3,0
		c3.2,0,5.9,2.6,6.1,5.8c-0.4,1.5-3.5,10.5-22.6,31.6c-11.9,13.1-23.6,23.7-23.7,23.8c-6.1,5.6-8.2,14.3-5.2,22
		c3,7.7,10.4,12.8,18.7,12.8h54c11,0,20-9,20-20s-9-20-20-20h-6.9c17.8-20.9,25.8-36.5,25.8-49.8C430.9,128.7,410.2,108,384.8,108"
		/>
</g>
</svg>
